<svg width="136" height="158" viewBox="0 0 136 158" fill="none" xmlns="http://www.w3.org/2000/svg">
<rect width="136" height="157.25" rx="2" fill="#2B4559"/>
<rect y="8.5" width="127.5" height="148.75" rx="1" fill="#6AA9DC"/>
<path d="M103.43 121.251C101.96 132.513 90.1969 149.109 62.9948 149.109C39.0387 149.109 25.5 132.054 25.5 121.251C25.5 110.449 39.0387 107.026 62.9948 107.026C86.9509 107.026 103.43 110.449 103.43 121.251Z" fill="#D9D9D9"/>
<path d="M101.872 117.16C101.872 122.755 85.1242 127.291 64.4652 127.291C43.8061 127.291 27.0586 122.755 27.0586 117.16C27.0586 111.565 43.8061 106.25 64.4652 106.25C85.1242 106.25 101.872 111.565 101.872 117.16Z" fill="#8F8F8F"/>
<circle cx="44.9834" cy="115.606" r="2.33791" fill="#F1AC1E"/>
<circle cx="38.7471" cy="117.162" r="2.33791" fill="#F1AC1E"/>
<circle cx="91.7412" cy="115.606" r="2.33791" fill="#F1AC1E"/>
<circle cx="55.8946" cy="114.041" r="2.33791" fill="#F1AC1E"/>
<circle cx="97.9756" cy="117.162" r="2.33791" fill="#F1AC1E"/>
<circle cx="62.1284" cy="112.485" r="2.33791" fill="#F1AC1E"/>
<circle cx="49.6587" cy="120.279" r="2.33791" fill="#F1AC1E"/>
<circle cx="32.5132" cy="117.162" r="2.33791" fill="#F1AC1E"/>
<circle cx="74.5962" cy="117.162" r="2.33791" fill="#F1AC1E"/>
<circle cx="57.4512" cy="123.393" r="2.33791" fill="#F1AC1E"/>
<circle cx="43.4229" cy="123.393" r="2.33791" fill="#F1AC1E"/>
<circle cx="82.3906" cy="123.393" r="2.33791" fill="#F1AC1E"/>
<circle cx="66.8037" cy="121.832" r="2.33791" fill="#F1AC1E"/>
<circle cx="35.6323" cy="120.279" r="2.33791" fill="#F1AC1E"/>
<circle cx="49.6587" cy="115.606" r="2.33791" fill="#BD3A3A"/>
<circle cx="65.2451" cy="117.162" r="2.33791" fill="#BD3A3A"/>
<circle cx="87.064" cy="123.393" r="2.33791" fill="#BD3A3A"/>
<circle cx="40.3057" cy="114.041" r="2.33791" fill="#BD3A3A"/>
<circle cx="59.0093" cy="110.929" r="2.33791" fill="#BD3A3A"/>
<circle cx="77.7129" cy="117.162" r="2.33791" fill="#BD3A3A"/>
<circle cx="66.8018" cy="124.953" r="2.33791" fill="#BD3A3A"/>
<circle cx="57.4512" cy="118.719" r="2.33791" fill="#BD3A3A"/>
<circle cx="44.9834" cy="120.279" r="2.33791" fill="#BD3A3A"/>
<circle cx="83.9473" cy="118.719" r="2.33791" fill="#BD3A3A"/>
<circle cx="96.417" cy="120.279" r="2.33791" fill="#BD3A3A"/>
<circle cx="71.4795" cy="121.832" r="2.33791" fill="#BD3A3A"/>
<circle cx="62.1284" cy="120.279" r="2.33791" fill="#BD3A3A"/>
<circle cx="48.1001" cy="120.279" r="2.33791" fill="#912F93"/>
<circle cx="76.1548" cy="121.832" r="2.33791" fill="#912F93"/>
<circle cx="73.0376" cy="124.953" r="2.33791" fill="#912F93"/>
<circle cx="43.4229" cy="114.041" r="2.33791" fill="#912F93"/>
<circle cx="48.1001" cy="112.485" r="2.33791" fill="#912F93"/>
<circle cx="69.9209" cy="114.041" r="2.33791" fill="#912F93"/>
<circle cx="30.9551" cy="118.719" r="2.33791" fill="#912F93"/>
<circle cx="52.7754" cy="117.162" r="2.33791" fill="#912F93"/>
<circle cx="91.7412" cy="112.485" r="2.33791" fill="#912F93"/>
<circle cx="57.4512" cy="120.279" r="2.33791" fill="#912F93"/>
<circle cx="80.8301" cy="115.606" r="2.33791" fill="#912F93"/>
<circle cx="60.5679" cy="115.606" r="2.33791" fill="#912F93"/>
<circle cx="88.6245" cy="118.719" r="2.33791" fill="#912F93"/>
<circle cx="52.7754" cy="121.832" r="2.33791" fill="#6AA9DC"/>
<circle cx="48.1001" cy="123.393" r="2.33791" fill="#6AA9DC"/>
<circle cx="77.7129" cy="124.953" r="2.33791" fill="#6AA9DC"/>
<circle cx="69.9209" cy="124.953" r="2.33791" fill="#6AA9DC"/>
<circle cx="57.4512" cy="124.953" r="2.33791" fill="#6AA9DC"/>
<circle cx="93.2998" cy="117.162" r="2.33791" fill="#6AA9DC"/>
<circle cx="88.6245" cy="114.041" r="2.33791" fill="#6AA9DC"/>
<circle cx="38.7471" cy="121.832" r="2.33791" fill="#6AA9DC"/>
<circle cx="48.1001" cy="117.162" r="2.33791" fill="#6AA9DC"/>
<circle cx="71.4795" cy="115.606" r="2.33791" fill="#6AA9DC"/>
<circle cx="79.2715" cy="114.041" r="2.33791" fill="#6AA9DC"/>
<circle cx="52.7754" cy="112.485" r="2.33791" fill="#6AA9DC"/>
<circle cx="79.2715" cy="118.719" r="2.33791" fill="#6AA9DC"/>
<circle cx="35.6323" cy="114.041" r="2.33791" fill="#6AA9DC"/>
<circle cx="54.334" cy="117.162" r="2.33791" fill="#309E42"/>
<circle cx="85.5054" cy="120.279" r="2.33791" fill="#309E42"/>
<circle cx="69.9209" cy="118.719" r="2.33791" fill="#309E42"/>
<circle cx="80.8301" cy="121.832" r="2.33791" fill="#309E42"/>
<circle cx="52.7754" cy="123.393" r="2.33791" fill="#309E42"/>
<circle cx="65.2451" cy="112.485" r="2.33791" fill="#309E42"/>
<circle cx="62.1284" cy="124.953" r="2.33791" fill="#309E42"/>
<circle cx="91.7412" cy="121.832" r="2.33791" fill="#309E42"/>
<circle cx="41.8662" cy="118.719" r="2.33791" fill="#309E42"/>
<circle cx="83.9473" cy="114.041" r="2.33791" fill="#309E42"/>
<circle cx="74.5962" cy="112.485" r="2.33791" fill="#309E42"/>
<circle cx="35.6323" cy="118.719" r="2.33791" fill="#309E42"/>
<circle cx="62.1284" cy="118.719" r="2.33791" fill="#309E42"/>
<rect x="17" y="21.25" width="97.75" height="12.75" fill="white"/>
<rect x="17" y="51" width="97.75" height="12.75" fill="white"/>
<rect x="17" y="80.75" width="97.75" height="12.75" fill="white"/>
</svg>
