<svg width="106" height="106" viewBox="0 0 106 106" fill="none" xmlns="http://www.w3.org/2000/svg">
<path d="M106 99.375C106 103.032 103.032 106 99.375 106H6.625C2.968 106 0 103.032 0 99.375V6.625C0 2.968 2.968 0 6.625 0H99.375C103.032 0 106 2.968 106 6.625V99.375Z" fill="white"/>
<path d="M72.875 106V66.25H86.125L89.4375 49.6875H72.875V43.0625C72.875 36.4375 76.1941 33.125 82.8125 33.125H89.4375V16.5625C86.125 16.5625 82.0175 16.5625 76.1875 16.5625C64.0141 16.5625 56.3125 26.1058 56.3125 39.75V49.6875H43.0625V66.25H56.3125V106H72.875Z" fill="#BD3A3A"/>
</svg>
