<svg width="106" height="106" viewBox="0 0 106 106" fill="none" xmlns="http://www.w3.org/2000/svg">
<path d="M52.7195 31.2188C39.6331 31.2188 28.79 41.8748 28.79 55.1482C28.79 68.4216 39.4461 79.0777 52.7195 79.0777C65.9929 79.0777 76.6489 68.2346 76.6489 55.1482C76.6489 42.0618 65.8059 31.2188 52.7195 31.2188ZM52.7195 70.478C44.3068 70.478 37.3897 63.5609 37.3897 55.1482C37.3897 46.7355 44.3068 39.8184 52.7195 39.8184C61.1322 39.8184 68.0493 46.7355 68.0493 55.1482C68.0493 63.5609 61.1322 70.478 52.7195 70.478Z" fill="white"/>
<path d="M77.5836 36.0813C80.5778 36.0813 83.0051 33.654 83.0051 30.6598C83.0051 27.6656 80.5778 25.2383 77.5836 25.2383C74.5894 25.2383 72.1621 27.6656 72.1621 30.6598C72.1621 33.654 74.5894 36.0813 77.5836 36.0813Z" fill="white"/>
<path d="M91.6049 16.6376C86.7442 11.5899 79.8271 8.97266 71.9753 8.97266H33.4638C17.1992 8.97266 6.3562 19.8157 6.3562 36.0802V74.4048C6.3562 82.4436 8.97348 89.3607 14.2081 94.4083C19.2557 99.269 25.9858 101.699 33.6507 101.699H71.7883C79.8271 101.699 86.5573 99.082 91.4179 94.4083C96.4656 89.5476 99.0828 82.6305 99.0828 74.5917V36.0802C99.0828 28.2284 96.4655 21.4982 91.6049 16.6376ZM90.8571 74.5917C90.8571 80.3871 88.8006 85.0608 85.4356 88.239C82.0705 91.4171 77.3968 93.0996 71.7883 93.0996H33.6507C28.0423 93.0996 23.3685 91.4171 20.0035 88.239C16.6384 84.8739 14.9558 80.2002 14.9558 74.4048V36.0802C14.9558 30.4718 16.6384 25.7981 20.0035 22.433C23.1816 19.2548 28.0423 17.5723 33.6507 17.5723H72.1622C77.7707 17.5723 82.4444 19.2548 85.8095 22.6199C88.9876 25.985 90.8571 30.6587 90.8571 36.0802V74.5917Z" fill="white"/>
</svg>
