<svg width="106" height="101" viewBox="0 0 106 101" fill="none" xmlns="http://www.w3.org/2000/svg">
<path d="M98.7904 26.7622C95.4043 28.1922 91.7602 29.1568 87.9366 29.5884C91.8406 27.3679 94.834 23.8506 96.2457 19.6547C92.5941 21.7136 88.5518 23.2076 84.2458 24.014C80.7999 20.5252 75.8882 18.3438 70.4529 18.3438C60.018 18.3438 51.5575 26.382 51.5575 36.2979C51.5575 37.7031 51.7239 39.0727 52.0474 40.389C36.3417 39.6393 22.4161 32.4928 13.0955 21.6301C11.4689 24.2805 10.5377 27.3644 10.5377 30.6578C10.5377 36.8859 13.8733 42.3821 18.944 45.601C15.8477 45.5068 12.9328 44.6986 10.3844 43.3538C10.3825 43.4284 10.3825 43.5048 10.3825 43.5812C10.3825 52.2785 16.8966 59.5334 25.5422 61.1854C23.9567 61.594 22.2871 61.8143 20.5632 61.8143C19.3441 61.8143 18.1606 61.7024 17.007 61.491C19.4133 68.6232 26.3911 73.8157 34.659 73.9596C28.1916 78.7754 20.0453 81.6461 11.1903 81.6461C9.66645 81.6461 8.16132 81.5608 6.68237 81.3938C15.0475 86.4904 24.9794 89.4605 35.6499 89.4605C70.4099 89.4605 89.4156 62.1038 89.4156 38.3781C89.4156 37.6 89.3988 36.8237 89.3632 36.0528C93.0541 33.5267 96.2588 30.3629 98.7904 26.7622Z" fill="white"/>
</svg>
